{"title":"Mars.Needs.Moms.2011.R5.XviD.AC3-mtyy","uid":6460844,"size":1518336674,"categoryP":"video","categoryS":"movies","magnet":"?xt=urn:btih:ee40177ab9c8effbd700fa75247df483bb76d25a&amp;dn=Mars.Needs.Moms.2011.R5.XviD.AC3-mtyy&amp;tr=udp%3A%2F%2Ftracker.openbittorrent.com%3A80&amp;tr=udp%3A%2F%2Fopen.demonii.com%3A1337&amp;tr=udp%3A%2F%2Ftracker.coppersurfer.tk%3A6969&amp;tr=udp%3A%2F%2Fexodus.desync.com%3A6969","seeders":0,"leechers":1,"uploader":"sceneline","files":106,"time":1307760407,"description":"- &lt;a href=&quot;\nhttp://www.Speed.Cd&quot; rel=&quot;nofollow&quot; target=&quot;_NEW&quot;&gt;\nhttp://www.Speed.Cd&lt;/a&gt; \n       &lt;a href=&quot;\nhttp://www.Speed.Cd&quot; rel=&quot;nofollow&quot; target=&quot;_NEW&quot;&gt;\nhttp://www.Speed.Cd&lt;/a&gt;       the fast  and The Hottest Private Tracker on the net\n\n(((--Registration will be open on june every weekend--)))\n\nPlease Seed back to make the speed Faster!!!\n\n------------------nfo--------------------------\n-\n[IMG]http://www.gugglet.com/wp-content/uploads/2011/03/Mars-Needs-Moms-2011.jpg[/IMG]\n\nTiTLE.........: Mars.Needs.Moms.2011.R5.XviD.AC3-mtyy\nRUNTiME.......: 1h 24mn\nFORMAT........: XviD\nRAR COUNT.....: 101x15MB\nSOURCE .......: R5 DVD9\nGENRE.........: Animation | Action | Adventure \nAUDIO.........: English \nSUBTITLES.....: None\nSAMPEL........: YES\nRELEASE DATE..: 11-06-2011\n\nIMDB : http://www.imdb.com/title/tt1305591/\n\nPlot :\nA young boy named Milo gains a deeper appreciation for his \nmom after Martians come to Earth to take her away.  \n\n\nGeneral\n\nComplete name                    : Mars.Needs.Moms.2011.R5.XviD.AC3-mtyy\nFormat                           : AVI\nFormat/Info                      : Audio Video Interleave\nFormat profile                   : OpenDML\nFile size                        : 1.40 GiB\nDuration                         : 1h 24mn\nOverall bit rate                 : 2 372 Kbps\nWriting application              : MEncoder version 4.0.0 building on 20100917\n\n\nVideo\n\nFormat                           : MPEG-4 Visual\nFormat profile                   : Simple@L1\nFormat settings, BVOP            : No\nFormat settings, QPel            : No\nFormat settings, GMC             : No warppoints\nFormat settings, Matrix          : Default (H.263)\nCodec ID                         : DX50\nCodec ID/Hint                    : DivX 5\nDuration                         : 1h 24mn\nBit rate                         : 1 982 Kbps\nWidth                            : 720 pixels\nHeight                           : 404 pixels\nDisplay aspect ratio             : 16:9\nFrame rate                       : 25.000 fps\nColor space                      : YUV\nChroma subsampling               : 4:2:0\nBit depth                        : 8 bits\nScan type                        : Progressive\nCompression mode                 : Lossy\nBits/(Pixel*Frame)               : 0.273\nStream size                      : 1.17 GiB (84%)\nWriting library                  : DigiArty AV Encoder Core\n\nAudio\n\nFormat                           : AC-3\nFormat/Info                      : Audio Coding 3\nMode extension                   : CM (complete main)\nCodec ID                         : 2000\nDuration                         : 1h 24mn\nBit rate mode                    : Constant\nBit rate                         : 384 Kbps\nChannel(s)                       : 6 channels\nChannel positions                : Front: L C R, Side: L R, LFE\nSampling rate                    : 48.0 KHz\nBit depth                        : 16 bits\nCompression mode                 : Lossy\nStream size                      : 232 MiB (16%)\nAlignment                        : Split accross interleaves\nInterleave, duration             : 500 ms (12.50 video frames)\nInterleave, preload duration     : 500 ms\n\nGREETS:\n\nGreets\nThanks to tinners twisted ,bigguy,CTFX, PA4U2C, HiTM4N,smelise.paranoid53\nfifer,DiLLoN,imagine,&quot;the squad&quot; ,floridajoe,apollo *THC* ELEKTRI4KA ,KART3LDVD, TDP\nAnd to all the other p2p grps past and present\n\n[center][img]http://shareimage.ro/images/8lm5epidel2fpjrflz.png[/img][/center]","torrent":{"xt":"urn:btih:ee40177ab9c8effbd700fa75247df483bb76d25a","amp;dn":"Mars.Needs.Moms.2011.R5.XviD.AC3-mtyy","amp;tr":["udp%3A%2F%2Ftracker.openbittorrent.com%3A80","udp%3A%2F%2Fopen.demonii.com%3A1337","udp%3A%2F%2Ftracker.coppersurfer.tk%3A6969","udp%3A%2F%2Fexodus.desync.com%3A6969"],"infoHash":"ee40177ab9c8effbd700fa75247df483bb76d25a","infoHashBuffer":{"type":"Buffer","data":[238,64,23,122,185,200,239,251,215,0,250,117,36,125,244,131,187,118,210,90]},"announce":[],"urlList":[]}}